STARTFONT 2.1
COMMENT  
COMMENT  Public domain font.  Share and enjoy.
COMMENT  
COMMENT  WARNING:  This bdf file was generated from a font server using
COMMENT  fstobdf.  The resulting font is subject to the same copyright,
COMMENT  license, and trademark restrictions as the original font.  The
COMMENT  authors and distributors of fstobdf disclaim all liability for
COMMENT  misuse of the program or its output.
COMMENT  
FONT -Misc-Fixed-Medium-R-Normal--8-80-75-75-C-50-ISO8859-1
SIZE 8 75 75
FONTBOUNDINGBOX 5 8 0 -1
STARTPROPERTIES 25
FONTNAME_REGISTRY ""
FOUNDRY "Misc"
FAMILY_NAME "Fixed"
WEIGHT_NAME "Medium"
SLANT "R"
SETWIDTH_NAME "Normal"
ADD_STYLE_NAME ""
PIXEL_SIZE 8
POINT_SIZE 80
RESOLUTION_X 75
RESOLUTION_Y 75
SPACING "C"
AVERAGE_WIDTH 50
CHARSET_REGISTRY "ISO8859"
CHARSET_ENCODING "1"
COPYRIGHT "Public domain font.  Share and enjoy."
CAP_HEIGHT 6
X_HEIGHT 4
FONT "-Misc-Fixed-Medium-R-Normal--8-80-75-75-C-50-ISO8859-1"
WEIGHT 10
RESOLUTION 103
QUAD_WIDTH 5
DEFAULT_CHAR 0
FONT_ASCENT 7
FONT_DESCENT 1
ENDPROPERTIES
CHARS 223
STARTCHAR C000
ENCODING 0
SWIDTH 600 0
DWIDTH 5 0
BBX 4 6 0 0
BITMAP
a0
10
80
10
80
50
ENDCHAR
STARTCHAR C001
ENCODING 1
SWIDTH 600 0
DWIDTH 5 0
BBX 5 5 0 0
BITMAP
20
70
f8
70
20
ENDCHAR
STARTCHAR C002
ENCODING 2
SWIDTH 600 0
DWIDTH 5 0
BBX 5 8 0 -1
BITMAP
50
a8
50
a8
50
a8
50
a8
ENDCHAR
STARTCHAR C003
ENCODING 3
SWIDTH 600 0
DWIDTH 5 0
BBX 4 8 0 -1
BITMAP
a0
a0
e0
a0
a0
70
20
20
ENDCHAR
STARTCHAR C004
ENCODING 4
SWIDTH 600 0
DWIDTH 5 0
BBX 5 8 0 -1
BITMAP
e0
80
c0
b8
a0
30
20
20
ENDCHAR
STARTCHAR C005
ENCODING 5
SWIDTH 600 0
DWIDTH 5 0
BBX 5 8 0 -1
BITMAP
60
80
80
60
30
28
30
28
ENDCHAR
STARTCHAR C006
ENCODING 6
SWIDTH 600 0
DWIDTH 5 0
BBX 5 8 0 -1
BITMAP
80
80
80
e0
38
20
30
20
ENDCHAR
STARTCHAR C007
ENCODING 7
SWIDTH 600 0
DWIDTH 5 0
BBX 3 3 1 3
BITMAP
40
a0
40
ENDCHAR
STARTCHAR C010
ENCODING 8
SWIDTH 600 0
DWIDTH 5 0
BBX 3 5 1 0
BITMAP
40
e0
40
00
e0
ENDCHAR
STARTCHAR C011
ENCODING 9
SWIDTH 600 0
DWIDTH 5 0
BBX 5 8 0 -1
BITMAP
90
d0
b0
90
20
20
20
38
ENDCHAR
STARTCHAR C012
ENCODING 10
SWIDTH 600 0
DWIDTH 5 0
BBX 5 8 0 -1
BITMAP
a0
a0
a0
40
38
10
10
10
ENDCHAR
STARTCHAR C013
ENCODING 11
SWIDTH 600 0
DWIDTH 5 0
BBX 3 4 0 3
BITMAP
20
20
20
e0
ENDCHAR
STARTCHAR C014
ENCODING 12
SWIDTH 600 0
DWIDTH 5 0
BBX 3 5 0 -1
BITMAP
e0
20
20
20
20
ENDCHAR
STARTCHAR C015
ENCODING 13
SWIDTH 600 0
DWIDTH 5 0
BBX 3 5 2 -1
BITMAP
e0
80
80
80
80
ENDCHAR
STARTCHAR C016
ENCODING 14
SWIDTH 600 0
DWIDTH 5 0
BBX 3 4 2 3
BITMAP
80
80
80
e0
ENDCHAR
STARTCHAR C017
ENCODING 15
SWIDTH 600 0
DWIDTH 5 0
BBX 5 8 0 -1
BITMAP
20
20
20
f8
20
20
20
20
ENDCHAR
STARTCHAR C020
ENCODING 16
SWIDTH 600 0
DWIDTH 5 0
BBX 5 1 0 6
BITMAP
f8
ENDCHAR
STARTCHAR C021
ENCODING 17
SWIDTH 600 0
DWIDTH 5 0
BBX 5 1 0 5
BITMAP
f8
ENDCHAR
STARTCHAR C022
ENCODING 18
SWIDTH 600 0
DWIDTH 5 0
BBX 5 1 0 3
BITMAP
f8
ENDCHAR
STARTCHAR C023
ENCODING 19
SWIDTH 600 0
DWIDTH 5 0
BBX 5 1 0 0
BITMAP
f8
ENDCHAR
STARTCHAR C024
ENCODING 20
SWIDTH 600 0
DWIDTH 5 0
BBX 5 1 0 -1
BITMAP
f8
ENDCHAR
STARTCHAR C025
ENCODING 21
SWIDTH 600 0
DWIDTH 5 0
BBX 3 8 2 -1
BITMAP
80
80
80
e0
80
80
80
80
ENDCHAR
STARTCHAR C026
ENCODING 22
SWIDTH 600 0
DWIDTH 5 0
BBX 3 8 0 -1
BITMAP
20
20
20
e0
20
20
20
20
ENDCHAR
STARTCHAR C027
ENCODING 23
SWIDTH 600 0
DWIDTH 5 0
BBX 5 4 0 3
BITMAP
20
20
20
f8
ENDCHAR
STARTCHAR C030
ENCODING 24
SWIDTH 600 0
DWIDTH 5 0
BBX 5 5 0 -1
BITMAP
f8
20
20
20
20
ENDCHAR
STARTCHAR C031
ENCODING 25
SWIDTH 600 0
DWIDTH 5 0
BBX 1 8 2 -1
BITMAP
80
80
80
80
80
80
80
80
ENDCHAR
STARTCHAR C032
ENCODING 26
SWIDTH 600 0
DWIDTH 5 0
BBX 3 6 1 0
BITMAP
20
40
80
40
20
e0
ENDCHAR
STARTCHAR C033
ENCODING 27
SWIDTH 600 0
DWIDTH 5 0
BBX 3 6 1 0
BITMAP
80
40
20
40
80
e0
ENDCHAR
STARTCHAR C034
ENCODING 28
SWIDTH 600 0
DWIDTH 5 0
BBX 5 4 0 0
BITMAP
f8
50
50
50
ENDCHAR
STARTCHAR C035
ENCODING 29
SWIDTH 600 0
DWIDTH 5 0
BBX 4 5 0 0
BITMAP
20
f0
60
f0
40
ENDCHAR
STARTCHAR C036
ENCODING 30
SWIDTH 600 0
DWIDTH 5 0
BBX 4 6 0 0
BITMAP
20
50
e0
40
50
a0
ENDCHAR
STARTCHAR C037
ENCODING 31
SWIDTH 600 0
DWIDTH 5 0
BBX 1 1 2 2
BITMAP
80
ENDCHAR
STARTCHAR space
ENCODING 32
SWIDTH 600 0
DWIDTH 5 0
BBX 0 0 0 0
BITMAP
ENDCHAR
STARTCHAR exclam
ENCODING 33
SWIDTH 600 0
DWIDTH 5 0
BBX 1 6 2 0
BITMAP
80
80
80
80
00
80
ENDCHAR
STARTCHAR quotedbl
ENCODING 34
SWIDTH 600 0
DWIDTH 5 0
BBX 3 3 1 3
BITMAP
a0
a0
a0
ENDCHAR
STARTCHAR numbersign
ENCODING 35
SWIDTH 600 0
DWIDTH 5 0
BBX 5 7 0 0
BITMAP
50
50
f8
50
f8
50
50
ENDCHAR
STARTCHAR dollar
ENCODING 36
SWIDTH 600 0
DWIDTH 5 0
BBX 5 7 0 0
BITMAP
20
70
a0
70
28
70
20
ENDCHAR
STARTCHAR percent
ENCODING 37
SWIDTH 600 0
DWIDTH 5 0
BBX 3 5 1 1
BITMAP
80
a0
40
a0
20
ENDCHAR
STARTCHAR ampersand
ENCODING 38
SWIDTH 600 0
DWIDTH 5 0
BBX 4 7 0 0
BITMAP
40
a0
a0
40
a0
a0
50
ENDCHAR
STARTCHAR apostrophe
ENCODING 39
SWIDTH 600 0
DWIDTH 5 0
BBX 1 3 2 3
BITMAP
80
80
80
ENDCHAR
STARTCHAR parenleft
ENCODING 40
SWIDTH 600 0
DWIDTH 5 0
BBX 2 6 1 0
BITMAP
40
80
80
80
80
40
ENDCHAR
STARTCHAR parenright
ENCODING 41
SWIDTH 600 0
DWIDTH 5 0
BBX 2 6 1 0
BITMAP
80
40
40
40
40
80
ENDCHAR
STARTCHAR asterisk
ENCODING 42
SWIDTH 600 0
DWIDTH 5 0
BBX 4 5 0 0
BITMAP
90
60
f0
60
90
ENDCHAR
STARTCHAR plus
ENCODING 43
SWIDTH 600 0
DWIDTH 5 0
BBX 5 5 0 0
BITMAP
20
20
f8
20
20
ENDCHAR
STARTCHAR comma
ENCODING 44
SWIDTH 600 0
DWIDTH 5 0
BBX 3 3 1 -1
BITMAP
60
40
80
ENDCHAR
STARTCHAR minus
ENCODING 45
SWIDTH 600 0
DWIDTH 5 0
BBX 4 1 0 2
BITMAP
f0
ENDCHAR
STARTCHAR period
ENCODING 46
SWIDTH 600 0
DWIDTH 5 0
BBX 3 3 1 -1
BITMAP
40
e0
40
ENDCHAR
STARTCHAR slash
ENCODING 47
SWIDTH 600 0
DWIDTH 5 0
BBX 4 6 0 0
BITMAP
10
10
20
40
80
80
ENDCHAR
STARTCHAR 0
ENCODING 48
SWIDTH 600 0
DWIDTH 5 0
BBX 3 6 1 0
BITMAP
40
a0
a0
a0
a0
40
ENDCHAR
STARTCHAR 1
ENCODING 49
SWIDTH 600 0
DWIDTH 5 0
BBX 3 6 1 0
BITMAP
40
c0
40
40
40
e0
ENDCHAR
STARTCHAR 2
ENCODING 50
SWIDTH 600 0
DWIDTH 5 0
BBX 4 6 0 0
BITMAP
60
90
10
60
80
f0
ENDCHAR
STARTCHAR 3
ENCODING 51
SWIDTH 600 0
DWIDTH 5 0
BBX 4 6 0 0
BITMAP
f0
20
60
10
90
60
ENDCHAR
STARTCHAR 4
ENCODING 52
SWIDTH 600 0
DWIDTH 5 0
BBX 4 6 0 0
BITMAP
20
60
a0
f0
20
20
ENDCHAR
STARTCHAR 5
ENCODING 53
SWIDTH 600 0
DWIDTH 5 0
BBX 4 6 0 0
BITMAP
f0
80
e0
10
90
60
ENDCHAR
STARTCHAR 6
ENCODING 54
SWIDTH 600 0
DWIDTH 5 0
BBX 4 6 0 0
BITMAP
60
80
e0
90
90
60
ENDCHAR
STARTCHAR 7
ENCODING 55
SWIDTH 600 0
DWIDTH 5 0
BBX 4 6 0 0
BITMAP
f0
10
20
20
40
40
ENDCHAR
STARTCHAR 8
ENCODING 56
SWIDTH 600 0
DWIDTH 5 0
BBX 4 6 0 0
BITMAP
60
90
60
90
90
60
ENDCHAR
STARTCHAR 9
ENCODING 57
SWIDTH 600 0
DWIDTH 5 0
BBX 4 6 0 0
BITMAP
60
90
90
70
10
60
ENDCHAR
STARTCHAR colon
ENCODING 58
SWIDTH 600 0
DWIDTH 5 0
BBX 2 5 1 0
BITMAP
c0
c0
00
c0
c0
ENDCHAR
STARTCHAR semicolon
ENCODING 59
SWIDTH 600 0
DWIDTH 5 0
BBX 3 6 1 -1
BITMAP
60
60
00
60
40
80
ENDCHAR
STARTCHAR less
ENCODING 60
SWIDTH 600 0
DWIDTH 5 0
BBX 3 6 1 0
BITMAP
20
40
80
80
40
20
ENDCHAR
STARTCHAR equal
ENCODING 61
SWIDTH 600 0
DWIDTH 5 0
BBX 4 3 0 1
BITMAP
f0
00
f0
ENDCHAR
STARTCHAR greater
ENCODING 62
SWIDTH 600 0
DWIDTH 5 0
BBX 3 6 1 0
BITMAP
80
40
20
20
40
80
ENDCHAR
STARTCHAR question
ENCODING 63
SWIDTH 600 0
DWIDTH 5 0
BBX 3 6 1 0
BITMAP
40
a0
20
40
00
40
ENDCHAR
STARTCHAR at
ENCODING 64
SWIDTH 600 0
DWIDTH 5 0
BBX 5 8 0 -1
BITMAP
30
48
98
a8
a8
90
40
30
ENDCHAR
STARTCHAR A
ENCODING 65
SWIDTH 600 0
DWIDTH 5 0
BBX 4 6 0 0
BITMAP
60
90
90
f0
90
90
ENDCHAR
STARTCHAR B
ENCODING 66
SWIDTH 600 0
DWIDTH 5 0
BBX 4 6 0 0
BITMAP
e0
90
e0
90
90
e0
ENDCHAR
STARTCHAR C
ENCODING 67
SWIDTH 600 0
DWIDTH 5 0
BBX 4 6 0 0
BITMAP
60
90
80
80
90
60
ENDCHAR
STARTCHAR D
ENCODING 68
SWIDTH 600 0
DWIDTH 5 0
BBX 4 6 0 0
BITMAP
e0
90
90
90
90
e0
ENDCHAR
STARTCHAR E
ENCODING 69
SWIDTH 600 0
DWIDTH 5 0
BBX 4 6 0 0
BITMAP
f0
80
e0
80
80
f0
ENDCHAR
STARTCHAR F
ENCODING 70
SWIDTH 600 0
DWIDTH 5 0
BBX 4 6 0 0
BITMAP
f0
80
e0
80
80
80
ENDCHAR
STARTCHAR G
ENCODING 71
SWIDTH 600 0
DWIDTH 5 0
BBX 4 6 0 0
BITMAP
60
90
80
b0
90
60
ENDCHAR
STARTCHAR H
ENCODING 72
SWIDTH 600 0
DWIDTH 5 0
BBX 4 6 0 0
BITMAP
90
90
f0
90
90
90
ENDCHAR
STARTCHAR I
ENCODING 73
SWIDTH 600 0
DWIDTH 5 0
BBX 3 6 1 0
BITMAP
e0
40
40
40
40
e0
ENDCHAR
STARTCHAR J
ENCODING 74
SWIDTH 600 0
DWIDTH 5 0
BBX 4 6 0 0
BITMAP
70
20
20
20
a0
40
ENDCHAR
STARTCHAR K
ENCODING 75
SWIDTH 600 0
DWIDTH 5 0
BBX 4 6 0 0
BITMAP
90
a0
c0
a0
a0
90
ENDCHAR
STARTCHAR L
ENCODING 76
SWIDTH 600 0
DWIDTH 5 0
BBX 4 6 0 0
BITMAP
80
80
80
80
80
f0
ENDCHAR
STARTCHAR M
ENCODING 77
SWIDTH 600 0
DWIDTH 5 0
BBX 4 6 0 0
BITMAP
90
f0
f0
90
90
90
ENDCHAR
STARTCHAR N
ENCODING 78
SWIDTH 600 0
DWIDTH 5 0
BBX 4 6 0 0
BITMAP
90
d0
f0
b0
b0
90
ENDCHAR
STARTCHAR O
ENCODING 79
SWIDTH 600 0
DWIDTH 5 0
BBX 4 6 0 0
BITMAP
60
90
90
90
90
60
ENDCHAR
STARTCHAR P
ENCODING 80
SWIDTH 600 0
DWIDTH 5 0
BBX 4 6 0 0
BITMAP
e0
90
90
e0
80
80
ENDCHAR
STARTCHAR Q
ENCODING 81
SWIDTH 600 0
DWIDTH 5 0
BBX 4 7 0 -1
BITMAP
60
90
90
d0
b0
60
10
ENDCHAR
STARTCHAR R
ENCODING 82
SWIDTH 600 0
DWIDTH 5 0
BBX 4 6 0 0
BITMAP
e0
90
90
e0
90
90
ENDCHAR
STARTCHAR S
ENCODING 83
SWIDTH 600 0
DWIDTH 5 0
BBX 4 6 0 0
BITMAP
60
90
40
20
90
60
ENDCHAR
STARTCHAR T
ENCODING 84
SWIDTH 600 0
DWIDTH 5 0
BBX 3 6 1 0
BITMAP
e0
40
40
40
40
40
ENDCHAR
STARTCHAR U
ENCODING 85
SWIDTH 600 0
DWIDTH 5 0
BBX 4 6 0 0
BITMAP
90
90
90
90
90
60
ENDCHAR
STARTCHAR V
ENCODING 86
SWIDTH 600 0
DWIDTH 5 0
BBX 4 6 0 0
BITMAP
90
90
90
90
60
60
ENDCHAR
STARTCHAR W
ENCODING 87
SWIDTH 600 0
DWIDTH 5 0
BBX 4 6 0 0
BITMAP
90
90
90
f0
f0
90
ENDCHAR
STARTCHAR X
ENCODING 88
SWIDTH 600 0
DWIDTH 5 0
BBX 4 6 0 0
BITMAP
90
90
60
60
90
90
ENDCHAR
STARTCHAR Y
ENCODING 89
SWIDTH 600 0
DWIDTH 5 0
BBX 5 6 0 0
BITMAP
88
88
50
20
20
20
ENDCHAR
STARTCHAR Z
ENCODING 90
SWIDTH 600 0
DWIDTH 5 0
BBX 4 6 0 0
BITMAP
f0
10
20
40
80
f0
ENDCHAR
STARTCHAR bracketleft
ENCODING 91
SWIDTH 600 0
DWIDTH 5 0
BBX 3 6 1 0
BITMAP
e0
80
80
80
80
e0
ENDCHAR
STARTCHAR backslash
ENCODING 92
SWIDTH 600 0
DWIDTH 5 0
BBX 4 6 0 0
BITMAP
80
80
40
20
10
10
ENDCHAR
STARTCHAR bracketright
ENCODING 93
SWIDTH 600 0
DWIDTH 5 0
BBX 3 6 1 0
BITMAP
e0
20
20
20
20
e0
ENDCHAR
STARTCHAR asciicircum
ENCODING 94
SWIDTH 600 0
DWIDTH 5 0
BBX 3 2 1 4
BITMAP
40
a0
ENDCHAR
STARTCHAR underscore
ENCODING 95
SWIDTH 600 0
DWIDTH 5 0
BBX 4 1 0 -1
BITMAP
f0
ENDCHAR
STARTCHAR grave
ENCODING 96
SWIDTH 600 0
DWIDTH 5 0
BBX 2 2 1 4
BITMAP
80
40
ENDCHAR
STARTCHAR a
ENCODING 97
SWIDTH 600 0
DWIDTH 5 0
BBX 4 4 0 0
BITMAP
70
90
90
70
ENDCHAR
STARTCHAR b
ENCODING 98
SWIDTH 600 0
DWIDTH 5 0
BBX 4 6 0 0
BITMAP
80
80
e0
90
90
e0
ENDCHAR
STARTCHAR c
ENCODING 99
SWIDTH 600 0
DWIDTH 5 0
BBX 3 4 1 0
BITMAP
60
80
80
60
ENDCHAR
STARTCHAR d
ENCODING 100
SWIDTH 600 0
DWIDTH 5 0
BBX 4 6 0 0
BITMAP
10
10
70
90
90
70
ENDCHAR
STARTCHAR e
ENCODING 101
SWIDTH 600 0
DWIDTH 5 0
BBX 4 4 0 0
BITMAP
60
b0
c0
60
ENDCHAR
STARTCHAR f
ENCODING 102
SWIDTH 600 0
DWIDTH 5 0
BBX 4 6 0 0
BITMAP
20
50
40
e0
40
40
ENDCHAR
STARTCHAR g
ENCODING 103
SWIDTH 600 0
DWIDTH 5 0
BBX 4 5 0 -1
BITMAP
60
90
70
10
60
ENDCHAR
STARTCHAR h
ENCODING 104
SWIDTH 600 0
DWIDTH 5 0
BBX 4 6 0 0
BITMAP
80
80
e0
90
90
90
ENDCHAR
STARTCHAR i
ENCODING 105
SWIDTH 600 0
DWIDTH 5 0
BBX 3 6 1 0
BITMAP
40
00
c0
40
40
e0
ENDCHAR
STARTCHAR j
ENCODING 106
SWIDTH 600 0
DWIDTH 5 0
BBX 3 7 1 -1
BITMAP
20
00
20
20
20
a0
40
ENDCHAR
STARTCHAR k
ENCODING 107
SWIDTH 600 0
DWIDTH 5 0
BBX 4 6 0 0
BITMAP
80
80
90
e0
90
90
ENDCHAR
STARTCHAR l
ENCODING 108
SWIDTH 600 0
DWIDTH 5 0
BBX 3 6 1 0
BITMAP
c0
40
40
40
40
e0
ENDCHAR
STARTCHAR m
ENCODING 109
SWIDTH 600 0
DWIDTH 5 0
BBX 5 4 0 0
BITMAP
d0
a8
a8
a8
ENDCHAR
STARTCHAR n
ENCODING 110
SWIDTH 600 0
DWIDTH 5 0
BBX 4 4 0 0
BITMAP
e0
90
90
90
ENDCHAR
STARTCHAR o
ENCODING 111
SWIDTH 600 0
DWIDTH 5 0
BBX 4 4 0 0
BITMAP
60
90
90
60
ENDCHAR
STARTCHAR p
ENCODING 112
SWIDTH 600 0
DWIDTH 5 0
BBX 4 5 0 -1
BITMAP
e0
90
e0
80
80
ENDCHAR
STARTCHAR q
ENCODING 113
SWIDTH 600 0
DWIDTH 5 0
BBX 4 5 0 -1
BITMAP
70
90
70
10
10
ENDCHAR
STARTCHAR r
ENCODING 114
SWIDTH 600 0
DWIDTH 5 0
BBX 4 4 0 0
BITMAP
a0
d0
80
80
ENDCHAR
STARTCHAR s
ENCODING 115
SWIDTH 600 0
DWIDTH 5 0
BBX 3 4 1 0
BITMAP
60
c0
20
c0
ENDCHAR
STARTCHAR t
ENCODING 116
SWIDTH 600 0
DWIDTH 5 0
BBX 4 6 0 0
BITMAP
40
40
e0
40
50
20
ENDCHAR
STARTCHAR u
ENCODING 117
SWIDTH 600 0
DWIDTH 5 0
BBX 4 4 0 0
BITMAP
90
90
90
70
ENDCHAR
STARTCHAR v
ENCODING 118
SWIDTH 600 0
DWIDTH 5 0
BBX 3 4 1 0
BITMAP
a0
a0
a0
40
ENDCHAR
STARTCHAR w
ENCODING 119
SWIDTH 600 0
DWIDTH 5 0
BBX 5 4 0 0
BITMAP
88
a8
a8
50
ENDCHAR
STARTCHAR x
ENCODING 120
SWIDTH 600 0
DWIDTH 5 0
BBX 4 4 0 0
BITMAP
90
60
60
90
ENDCHAR
STARTCHAR y
ENCODING 121
SWIDTH 600 0
DWIDTH 5 0
BBX 4 5 0 -1
BITMAP
90
90
70
90
60
ENDCHAR
STARTCHAR z
ENCODING 122
SWIDTH 600 0
DWIDTH 5 0
BBX 4 4 0 0
BITMAP
f0
20
40
f0
ENDCHAR
STARTCHAR braceleft
ENCODING 123
SWIDTH 600 0
DWIDTH 5 0
BBX 4 7 0 0
BITMAP
30
40
20
c0
20
40
30
ENDCHAR
STARTCHAR bar
ENCODING 124
SWIDTH 600 0
DWIDTH 5 0
BBX 1 6 2 0
BITMAP
80
80
80
80
80
80
ENDCHAR
STARTCHAR braceright
ENCODING 125
SWIDTH 600 0
DWIDTH 5 0
BBX 4 7 0 0
BITMAP
c0
20
40
30
40
20
c0
ENDCHAR
STARTCHAR asciitilde
ENCODING 126
SWIDTH 600 0
DWIDTH 5 0
BBX 4 2 0 4
BITMAP
50
a0
ENDCHAR
STARTCHAR nobreakspace
ENCODING 160
SWIDTH 600 0
DWIDTH 5 0
BBX 0 0 0 0
BITMAP
ENDCHAR
STARTCHAR exclamdown
ENCODING 161
SWIDTH 600 0
DWIDTH 5 0
BBX 1 6 2 0
BITMAP
80
00
80
80
80
80
ENDCHAR
STARTCHAR cent
ENCODING 162
SWIDTH 600 0
DWIDTH 5 0
BBX 4 6 0 -1
BITMAP
20
70
a0
a0
70
20
ENDCHAR
STARTCHAR sterling
ENCODING 163
SWIDTH 600 0
DWIDTH 5 0
BBX 4 6 0 0
BITMAP
20
50
e0
40
50
a0
ENDCHAR
STARTCHAR currency
ENCODING 164
SWIDTH 600 0
DWIDTH 5 0
BBX 5 5 0 0
BITMAP
88
70
50
70
88
ENDCHAR
STARTCHAR yen
ENCODING 165
SWIDTH 600 0
DWIDTH 5 0
BBX 5 6 0 0
BITMAP
88
50
f8
20
f8
20
ENDCHAR
STARTCHAR brokenbar
ENCODING 166
SWIDTH 600 0
DWIDTH 5 0
BBX 1 7 2 0
BITMAP
80
80
80
00
80
80
80
ENDCHAR
STARTCHAR section
ENCODING 167
SWIDTH 600 0
DWIDTH 5 0
BBX 4 7 0 0
BITMAP
70
80
e0
90
70
10
e0
ENDCHAR
STARTCHAR diaeresis
ENCODING 168
SWIDTH 600 0
DWIDTH 5 0
BBX 3 1 1 5
BITMAP
a0
ENDCHAR
STARTCHAR copyright
ENCODING 169
SWIDTH 600 0
DWIDTH 5 0
BBX 5 6 0 0
BITMAP
70
a8
c8
c8
a8
70
ENDCHAR
STARTCHAR ordfeminine
ENCODING 170
SWIDTH 600 0
DWIDTH 5 0
BBX 3 5 1 2
BITMAP
60
a0
60
00
e0
ENDCHAR
STARTCHAR guillemotleft
ENCODING 171
SWIDTH 600 0
DWIDTH 5 0
BBX 4 3 0 1
BITMAP
50
a0
50
ENDCHAR
STARTCHAR notsign
ENCODING 172
SWIDTH 600 0
DWIDTH 5 0
BBX 3 3 1 0
BITMAP
e0
20
20
ENDCHAR
STARTCHAR hyphen
ENCODING 173
SWIDTH 600 0
DWIDTH 5 0
BBX 3 1 1 2
BITMAP
e0
ENDCHAR
STARTCHAR registered
ENCODING 174
SWIDTH 600 0
DWIDTH 5 0
BBX 5 6 0 0
BITMAP
70
e8
d8
e8
d8
70
ENDCHAR
STARTCHAR macron
ENCODING 175
SWIDTH 600 0
DWIDTH 5 0
BBX 3 1 1 5
BITMAP
e0
ENDCHAR
STARTCHAR degree
ENCODING 176
SWIDTH 600 0
DWIDTH 5 0
BBX 3 3 1 3
BITMAP
40
a0
40
ENDCHAR
STARTCHAR plusminus
ENCODING 177
SWIDTH 600 0
DWIDTH 5 0
BBX 3 5 1 0
BITMAP
40
e0
40
00
e0
ENDCHAR
STARTCHAR twosuperior
ENCODING 178
SWIDTH 600 0
DWIDTH 5 0
BBX 3 5 1 2
BITMAP
40
a0
20
40
e0
ENDCHAR
STARTCHAR threesuperior
ENCODING 179
SWIDTH 600 0
DWIDTH 5 0
BBX 3 5 1 2
BITMAP
c0
20
c0
20
c0
ENDCHAR
STARTCHAR acute
ENCODING 180
SWIDTH 600 0
DWIDTH 5 0
BBX 2 2 1 4
BITMAP
40
80
ENDCHAR
STARTCHAR mu
ENCODING 181
SWIDTH 600 0
DWIDTH 5 0
BBX 4 5 0 -1
BITMAP
90
90
90
e0
80
ENDCHAR
STARTCHAR paragraph
ENCODING 182
SWIDTH 600 0
DWIDTH 5 0
BBX 5 6 0 0
BITMAP
78
e8
e8
68
28
28
ENDCHAR
STARTCHAR periodcentered
ENCODING 183
SWIDTH 600 0
DWIDTH 5 0
BBX 1 1 2 2
BITMAP
80
ENDCHAR
STARTCHAR cedilla
ENCODING 184
SWIDTH 600 0
DWIDTH 5 0
BBX 2 2 1 -1
BITMAP
40
80
ENDCHAR
STARTCHAR onesuperior
ENCODING 185
SWIDTH 600 0
DWIDTH 5 0
BBX 3 5 1 2
BITMAP
40
c0
40
40
e0
ENDCHAR
STARTCHAR masculine
ENCODING 186
SWIDTH 600 0
DWIDTH 5 0
BBX 3 5 1 2
BITMAP
40
a0
40
00
e0
ENDCHAR
STARTCHAR guillemotright
ENCODING 187
SWIDTH 600 0
DWIDTH 5 0
BBX 4 3 0 1
BITMAP
a0
50
a0
ENDCHAR
STARTCHAR onequarter
ENCODING 188
SWIDTH 600 0
DWIDTH 5 0
BBX 4 7 0 0
BITMAP
80
80
80
a0
60
f0
20
ENDCHAR
STARTCHAR onehalf
ENCODING 189
SWIDTH 600 0
DWIDTH 5 0
BBX 4 7 0 0
BITMAP
80
80
a0
d0
10
20
70
ENDCHAR
STARTCHAR threequarters
ENCODING 190
SWIDTH 600 0
DWIDTH 5 0
BBX 4 7 0 0
BITMAP
80
40
80
60
a0
f0
20
ENDCHAR
STARTCHAR questiondown
ENCODING 191
SWIDTH 600 0
DWIDTH 5 0
BBX 3 6 1 0
BITMAP
40
00
40
80
a0
40
ENDCHAR
STARTCHAR Agrave
ENCODING 192
SWIDTH 600 0
DWIDTH 5 0
BBX 4 7 0 0
BITMAP
40
20
60
90
f0
90
90
ENDCHAR
STARTCHAR Aacute
ENCODING 193
SWIDTH 600 0
DWIDTH 5 0
BBX 4 7 0 0
BITMAP
20
40
60
90
f0
90
90
ENDCHAR
STARTCHAR Acircumflex
ENCODING 194
SWIDTH 600 0
DWIDTH 5 0
BBX 4 7 0 0
BITMAP
60
90
60
90
f0
90
90
ENDCHAR
STARTCHAR Atilde
ENCODING 195
SWIDTH 600 0
DWIDTH 5 0
BBX 4 7 0 0
BITMAP
50
a0
60
90
f0
90
90
ENDCHAR
STARTCHAR Adiaeresis
ENCODING 196
SWIDTH 600 0
DWIDTH 5 0
BBX 4 7 0 0
BITMAP
90
00
60
90
f0
90
90
ENDCHAR
STARTCHAR Aring
ENCODING 197
SWIDTH 600 0
DWIDTH 5 0
BBX 4 7 0 0
BITMAP
60
90
60
90
f0
90
90
ENDCHAR
STARTCHAR AE
ENCODING 198
SWIDTH 600 0
DWIDTH 5 0
BBX 4 6 0 0
BITMAP
70
a0
a0
f0
a0
b0
ENDCHAR
STARTCHAR Ccedilla
ENCODING 199
SWIDTH 600 0
DWIDTH 5 0
BBX 4 7 0 -1
BITMAP
60
90
80
80
90
60
40
ENDCHAR
STARTCHAR Egrave
ENCODING 200
SWIDTH 600 0
DWIDTH 5 0
BBX 4 7 0 0
BITMAP
40
20
f0
80
e0
80
f0
ENDCHAR
STARTCHAR Eacute
ENCODING 201
SWIDTH 600 0
DWIDTH 5 0
BBX 4 7 0 0
BITMAP
20
40
f0
80
e0
80
f0
ENDCHAR
STARTCHAR Ecircumflex
ENCODING 202
SWIDTH 600 0
DWIDTH 5 0
BBX 4 7 0 0
BITMAP
60
90
f0
80
e0
80
f0
ENDCHAR
STARTCHAR Ediaeresis
ENCODING 203
SWIDTH 600 0
DWIDTH 5 0
BBX 4 7 0 0
BITMAP
90
00
f0
80
e0
80
f0
ENDCHAR
STARTCHAR Igrave
ENCODING 204
SWIDTH 600 0
DWIDTH 5 0
BBX 3 7 1 0
BITMAP
80
40
e0
40
40
40
e0
ENDCHAR
STARTCHAR Iacute
ENCODING 205
SWIDTH 600 0
DWIDTH 5 0
BBX 3 7 1 0
BITMAP
20
40
e0
40
40
40
e0
ENDCHAR
STARTCHAR Icircumflex
ENCODING 206
SWIDTH 600 0
DWIDTH 5 0
BBX 3 7 1 0
BITMAP
40
a0
e0
40
40
40
e0
ENDCHAR
STARTCHAR Idiaeresis
ENCODING 207
SWIDTH 600 0
DWIDTH 5 0
BBX 3 7 1 0
BITMAP
a0
00
e0
40
40
40
e0
ENDCHAR
STARTCHAR ETH
ENCODING 208
SWIDTH 600 0
DWIDTH 5 0
BBX 5 6 0 0
BITMAP
70
48
e8
48
48
70
ENDCHAR
STARTCHAR Ntilde
ENCODING 209
SWIDTH 600 0
DWIDTH 5 0
BBX 4 7 0 0
BITMAP
50
a0
90
d0
b0
90
90
ENDCHAR
STARTCHAR Ograve
ENCODING 210
SWIDTH 600 0
DWIDTH 5 0
BBX 4 7 0 0
BITMAP
40
20
60
90
90
90
60
ENDCHAR
STARTCHAR Oacute
ENCODING 211
SWIDTH 600 0
DWIDTH 5 0
BBX 4 7 0 0
BITMAP
20
40
60
90
90
90
60
ENDCHAR
STARTCHAR Ocircumflex
ENCODING 212
SWIDTH 600 0
DWIDTH 5 0
BBX 4 7 0 0
BITMAP
60
90
60
90
90
90
60
ENDCHAR
STARTCHAR Otilde
ENCODING 213
SWIDTH 600 0
DWIDTH 5 0
BBX 4 7 0 0
BITMAP
50
a0
60
90
90
90
60
ENDCHAR
STARTCHAR Odiaeresis
ENCODING 214
SWIDTH 600 0
DWIDTH 5 0
BBX 4 7 0 0
BITMAP
90
00
60
90
90
90
60
ENDCHAR
STARTCHAR multiply
ENCODING 215
SWIDTH 600 0
DWIDTH 5 0
BBX 3 3 1 0
BITMAP
a0
40
a0
ENDCHAR
STARTCHAR Oslash
ENCODING 216
SWIDTH 600 0
DWIDTH 5 0
BBX 4 6 0 0
BITMAP
70
b0
b0
d0
d0
e0
ENDCHAR
STARTCHAR Ugrave
ENCODING 217
SWIDTH 600 0
DWIDTH 5 0
BBX 4 7 0 0
BITMAP
40
20
90
90
90
90
60
ENDCHAR
STARTCHAR Uacute
ENCODING 218
SWIDTH 600 0
DWIDTH 5 0
BBX 4 7 0 0
BITMAP
20
40
90
90
90
90
60
ENDCHAR
STARTCHAR Ucircumflex
ENCODING 219
SWIDTH 600 0
DWIDTH 5 0
BBX 4 7 0 0
BITMAP
60
90
90
90
90
90
60
ENDCHAR
STARTCHAR Udiaeresis
ENCODING 220
SWIDTH 600 0
DWIDTH 5 0
BBX 4 7 0 0
BITMAP
90
00
90
90
90
90
60
ENDCHAR
STARTCHAR Yacute
ENCODING 221
SWIDTH 600 0
DWIDTH 5 0
BBX 5 7 0 0
BITMAP
10
20
88
50
20
20
20
ENDCHAR
STARTCHAR THORN
ENCODING 222
SWIDTH 600 0
DWIDTH 5 0
BBX 4 6 0 0
BITMAP
80
e0
90
90
e0
80
ENDCHAR
STARTCHAR ssharp
ENCODING 223
SWIDTH 600 0
DWIDTH 5 0
BBX 4 6 0 0
BITMAP
60
90
a0
a0
90
a0
ENDCHAR
STARTCHAR agrave
ENCODING 224
SWIDTH 600 0
DWIDTH 5 0
BBX 4 7 0 0
BITMAP
40
20
00
70
90
90
70
ENDCHAR
STARTCHAR aacute
ENCODING 225
SWIDTH 600 0
DWIDTH 5 0
BBX 4 7 0 0
BITMAP
20
40
00
70
90
90
70
ENDCHAR
STARTCHAR acircumflex
ENCODING 226
SWIDTH 600 0
DWIDTH 5 0
BBX 4 7 0 0
BITMAP
20
50
00
70
90
90
70
ENDCHAR
STARTCHAR atilde
ENCODING 227
SWIDTH 600 0
DWIDTH 5 0
BBX 4 7 0 0
BITMAP
50
a0
00
70
90
90
70
ENDCHAR
STARTCHAR adiaeresis
ENCODING 228
SWIDTH 600 0
DWIDTH 5 0
BBX 4 6 0 0
BITMAP
50
00
70
90
90
70
ENDCHAR
STARTCHAR aring
ENCODING 229
SWIDTH 600 0
DWIDTH 5 0
BBX 4 7 0 0
BITMAP
60
90
60
70
90
90
70
ENDCHAR
STARTCHAR ae
ENCODING 230
SWIDTH 600 0
DWIDTH 5 0
BBX 5 4 0 0
BITMAP
f0
68
b0
78
ENDCHAR
STARTCHAR ccedilla
ENCODING 231
SWIDTH 600 0
DWIDTH 5 0
BBX 3 5 1 -1
BITMAP
60
80
80
60
40
ENDCHAR
STARTCHAR egrave
ENCODING 232
SWIDTH 600 0
DWIDTH 5 0
BBX 4 7 0 0
BITMAP
40
20
00
60
b0
c0
60
ENDCHAR
STARTCHAR eacute
ENCODING 233
SWIDTH 600 0
DWIDTH 5 0
BBX 4 7 0 0
BITMAP
20
40
00
60
b0
c0
60
ENDCHAR
STARTCHAR ecircumflex
ENCODING 234
SWIDTH 600 0
DWIDTH 5 0
BBX 4 7 0 0
BITMAP
60
90
00
60
b0
c0
60
ENDCHAR
STARTCHAR ediaeresis
ENCODING 235
SWIDTH 600 0
DWIDTH 5 0
BBX 4 6 0 0
BITMAP
50
00
60
b0
c0
60
ENDCHAR
STARTCHAR igrave
ENCODING 236
SWIDTH 600 0
DWIDTH 5 0
BBX 3 7 1 0
BITMAP
80
40
00
c0
40
40
e0
ENDCHAR
STARTCHAR iacute
ENCODING 237
SWIDTH 600 0
DWIDTH 5 0
BBX 3 7 1 0
BITMAP
20
40
00
c0
40
40
e0
ENDCHAR
STARTCHAR icircumflex
ENCODING 238
SWIDTH 600 0
DWIDTH 5 0
BBX 3 7 1 0
BITMAP
40
a0
00
c0
40
40
e0
ENDCHAR
STARTCHAR idiaeresis
ENCODING 239
SWIDTH 600 0
DWIDTH 5 0
BBX 3 6 1 0
BITMAP
a0
00
c0
40
40
e0
ENDCHAR
STARTCHAR eth
ENCODING 240
SWIDTH 600 0
DWIDTH 5 0
BBX 4 7 0 0
BITMAP
a0
40
a0
10
70
90
60
ENDCHAR
STARTCHAR ntilde
ENCODING 241
SWIDTH 600 0
DWIDTH 5 0
BBX 4 7 0 0
BITMAP
50
a0
00
e0
90
90
90
ENDCHAR
STARTCHAR ograve
ENCODING 242
SWIDTH 600 0
DWIDTH 5 0
BBX 4 7 0 0
BITMAP
40
20
00
60
90
90
60
ENDCHAR
STARTCHAR oacute
ENCODING 243
SWIDTH 600 0
DWIDTH 5 0
BBX 4 7 0 0
BITMAP
20
40
00
60
90
90
60
ENDCHAR
STARTCHAR ocircumflex
ENCODING 244
SWIDTH 600 0
DWIDTH 5 0
BBX 4 7 0 0
BITMAP
60
90
00
60
90
90
60
ENDCHAR
STARTCHAR otilde
ENCODING 245
SWIDTH 600 0
DWIDTH 5 0
BBX 4 7 0 0
BITMAP
50
a0
00
60
90
90
60
ENDCHAR
STARTCHAR odiaeresis
ENCODING 246
SWIDTH 600 0
DWIDTH 5 0
BBX 4 6 0 0
BITMAP
90
00
60
90
90
60
ENDCHAR
STARTCHAR division
ENCODING 247
SWIDTH 600 0
DWIDTH 5 0
BBX 3 5 1 0
BITMAP
40
00
e0
00
40
ENDCHAR
STARTCHAR oslash
ENCODING 248
SWIDTH 600 0
DWIDTH 5 0
BBX 4 4 0 0
BITMAP
70
b0
d0
e0
ENDCHAR
STARTCHAR ugrave
ENCODING 249
SWIDTH 600 0
DWIDTH 5 0
BBX 4 7 0 0
BITMAP
40
20
00
90
90
90
70
ENDCHAR
STARTCHAR uacute
ENCODING 250
SWIDTH 600 0
DWIDTH 5 0
BBX 4 7 0 0
BITMAP
20
40
00
90
90
90
70
ENDCHAR
STARTCHAR ucircumflex
ENCODING 251
SWIDTH 600 0
DWIDTH 5 0
BBX 4 7 0 0
BITMAP
60
90
00
90
90
90
70
ENDCHAR
STARTCHAR udiaeresis
ENCODING 252
SWIDTH 600 0
DWIDTH 5 0
BBX 4 6 0 0
BITMAP
90
00
90
90
90
70
ENDCHAR
STARTCHAR yacute
ENCODING 253
SWIDTH 600 0
DWIDTH 5 0
BBX 4 8 0 -1
BITMAP
20
40
00
90
90
70
90
60
ENDCHAR
STARTCHAR thorn
ENCODING 254
SWIDTH 600 0
DWIDTH 5 0
BBX 4 7 0 -1
BITMAP
80
80
e0
90
e0
80
80
ENDCHAR
STARTCHAR ydiaeresis
ENCODING 255
SWIDTH 600 0
DWIDTH 5 0
BBX 4 7 0 -1
BITMAP
90
00
90
90
70
90
60
ENDCHAR
ENDFONT
